<?xml version="1.0" encoding="UTF-8"?>
<svg id="Layer_1" data-name="Layer 1" xmlns="http://www.w3.org/2000/svg" xmlns:xlink="http://www.w3.org/1999/xlink" viewBox="0 0 512 512">
  <defs>
    <style>
      .cls-1 {
        fill: none;
      }

      .cls-2 {
        clip-path: url(#clippath-1);
      }

      .cls-3 {
        clip-path: url(#clippath-2);
      }

      .cls-4 {
        fill: #86c442;
      }

      .cls-4, .cls-5 {
        fill-rule: evenodd;
      }

      .cls-5 {
        fill: #18aab0;
      }

      .cls-6 {
        clip-path: url(#clippath);
      }
    </style>
    <clipPath id="clippath">
      <rect class="cls-1" x="70.45" y="186.91" width="126.99" height="108.56"/>
    </clipPath>
    <clipPath id="clippath-1">
      <rect class="cls-1" x="200.73" y="55.32" width="110.54" height="110.54"/>
    </clipPath>
    <clipPath id="clippath-2">
      <rect class="cls-1" x="121.12" y="121.78" width="257.26" height="334.9"/>
    </clipPath>
  </defs>
  <g class="cls-6">
    <path class="cls-5" d="M115.81,187.05c-25.77,4.39-45.35,26.96-45.35,53.72v54.7h126.46c-2.8-22.36-11.39-43.73-25.97-61.1-3.8-4.59-8.19-8.79-12.79-12.78l-42.35-34.54Z"/>
  </g>
  <g class="cls-2">
    <path class="cls-5" d="M310.61,136.79v-26.75c0-29.95-24.56-54.71-54.71-54.71h-54.51v65.09c6.19-2.59,13.18-4.19,20.36-4.19,27.76,0,50.52,21.57,52.12,48.93,11.78-10.18,23.96-19.57,36.74-28.36Z"/>
  </g>
  <path class="cls-4" d="M256.4,425.75h54.21v-130.28h76.28c30.02,0,54.65-24.5,54.65-54.58v-54.64h-106.74c-13.57,17.55-23.74,37.69-30.73,62.02-11.37,39.48-12.37,81.56-27.54,119.85-8.97,22.53-21.74,40.48-37.31,54.84,5.39,1.8,11.17,2.8,17.16,2.8Z"/>
  <g class="cls-3">
    <path class="cls-5" d="M377.19,121.86c-181.4,117.81-17.38,279.16-255.92,334.67,115.27-54.11,120.47-191.89,49.14-250.2l69.73,21.76s49.94-68.69,137.05-106.23Z"/>
  </g>
  <path class="cls-4" d="M221.57,135.44c18.18,0,32.96,14.78,32.96,32.95s-14.78,32.75-32.96,32.75-32.76-14.58-32.76-32.75,14.58-32.95,32.76-32.95Z"/>
</svg>