<?xml version="1.0" encoding="utf-8"?>
<!-- Generator: Adobe Illustrator 30.2.1, SVG Export Plug-In . SVG Version: 9.03 Build 0)  -->
<svg version="1.0" id="Layer_1" xmlns="http://www.w3.org/2000/svg" xmlns:xlink="http://www.w3.org/1999/xlink" x="0px" y="0px"
	 viewBox="0 0 2000 875.4" style="enable-background:new 0 0 2000 875.4;" xml:space="preserve">
<style type="text/css">
	.st0{fill:#86C443;}
	.st1{fill:#18AAB0;}
	.st2{fill:#86C442;}
	.st3{clip-path:url(#SVGID_00000085230914299732752670000012980520723536098488_);}
	.st4{fill-rule:evenodd;clip-rule:evenodd;fill:#18AAB0;}
	.st5{clip-path:url(#SVGID_00000031923209790697031370000011884416470263705736_);}
	.st6{fill-rule:evenodd;clip-rule:evenodd;fill:#86C442;}
	.st7{clip-path:url(#SVGID_00000025437400305481921540000013068481032017308037_);}
</style>
<g>
	<g transform="translate(1005.484088, 822.549821)">
	</g>
</g>
<g>
	<g transform="translate(1041.721855, 719.963534)">
	</g>
</g>
<g>
	<g>
		<g transform="translate(598.80056, 822.549821)">
			<g>
				<path class="st0" d="M226.13-264.75c0,6-2.06,10.99-6.17,14.97c-4.1,3.96-10.36,5.94-18.76,5.94h-14.28v30h-9v-72h23.28
					c8.14,0,14.34,1.97,18.58,5.9C224.01-276.01,226.13-270.95,226.13-264.75z M200.53-251.85c5.15,0,8.95-1.11,11.38-3.34
					c2.44-2.24,3.67-5.43,3.67-9.57c0-8.73-5.02-13.09-15.05-13.09h-13.61v26H200.53z"/>
			</g>
		</g>
	</g>
	<g>
		<g transform="translate(658.702273, 822.549821)">
			<g>
				<path class="st0" d="M253.02-284.85v71h-9v-32h-37v32h-9v-71h9v31h37v-31H253.02z"/>
			</g>
		</g>
	</g>
	<g>
		<g transform="translate(727.304116, 822.549821)">
			<g>
				<path class="st0" d="M262.89-229.85h-31.37l-5.78,16h-9.68l25.8-71h10.77l25.72,71h-9.68L262.89-229.85z M260.14-236.85
					l-12.94-36.12l-12.94,36.12H260.14z"/>
			</g>
		</g>
	</g>
	<g>
		<g transform="translate(794.520102, 822.549821)">
			<g>
				<path class="st0" d="M280.29-213.85l-16.9-29h-11.2v29h-9v-72h22.23c5.21,0,9.61,0.93,13.19,2.79c3.59,1.86,6.28,4.38,8.06,7.55
					c1.77,3.18,2.67,6.79,2.67,10.84c0,4.96-1.37,9.34-4.11,13.12c-2.73,3.79-6.83,6.3-12.29,7.55l17.28,30.16H280.29z
					 M252.2-250.85h13.7c5.05,0,8.83-1.25,11.35-3.74c2.53-2.49,3.8-5.82,3.8-9.98c0-4.22-1.25-7.48-3.74-9.8
					c-2.49-2.32-6.3-3.49-11.41-3.49h-13.7V-250.85z"/>
			</g>
		</g>
	</g>
	<g>
		<g transform="translate(856.65458, 822.549821)">
			<g>
				<path class="st0" d="M336.07-284.85v71h-9v-52.98l-23.65,52.98h-6.6l-23.75-53.08v53.08h-10v-71h10.12l26.43,58.69l26.44-58.69
					H336.07z"/>
			</g>
		</g>
	</g>
	<g>
		<g transform="translate(938.268114, 822.549821)">
			<g>
				<path class="st0" d="M333.21-229.85h-31.37l-5.78,16h-9.68l25.8-71h10.77l25.72,71h-9.68L333.21-229.85z M330.46-236.85
					l-12.94-36.12l-12.94,36.12H330.46z"/>
			</g>
		</g>
	</g>
	<g>
		<g transform="translate(1041.364243, 822.549821)">
			<g>
				<path class="st0" d="M334.36-221.85h25v8h-34v-71h9V-221.85z"/>
			</g>
		</g>
	</g>
	<g>
		<g transform="translate(1089.94807, 822.549821)">
			<g>
				<path class="st0" d="M350.77-285.85v72h-9v-72H350.77z"/>
			</g>
		</g>
	</g>
	<g>
		<g transform="translate(1124.211357, 822.549821)">
			<g>
				<path class="st0" d="M425.51-284.85v71h-9v-52.98l-23.65,52.98h-6.6l-23.75-53.08v53.08h-10v-71h10.12l26.43,58.69l26.44-58.69
					H425.51z"/>
			</g>
		</g>
	</g>
	<g>
		<g transform="translate(1205.824891, 822.549821)">
			<g>
				<path class="st0" d="M388.9-285.85v72h-9v-72H388.9z"/>
			</g>
		</g>
	</g>
	<g>
		<g transform="translate(1240.088178, 822.549821)">
			<g>
				<path class="st0" d="M435.63-285.85v8h-20v64h-9v-64h-19v-8H435.63z"/>
			</g>
		</g>
	</g>
	<g>
		<g transform="translate(1297.064187, 822.549821)">
			<g>
				<path class="st0" d="M419.66-277.85v24h26v8h-26v25h30v7h-39v-72h38v8H419.66z"/>
			</g>
		</g>
	</g>
	<g>
		<g transform="translate(1351.884403, 822.549821)">
			<g>
				<path class="st0" d="M451.27-285.85c7.85,0,14.65,1.47,20.39,4.4c5.75,2.92,10.17,7.11,13.23,12.56
					c3.06,5.44,4.59,11.84,4.59,19.2c0,7.37-1.53,13.75-4.59,19.16c-3.06,5.41-7.47,9.55-13.23,12.41
					c-5.74,2.85-12.54,4.28-20.39,4.28h-22.43v-72H451.27z M450.72-221.85c9.19,0,16.21-2.43,21.05-7.3
					c4.84-4.86,7.26-11.7,7.26-20.49c0-8.86-2.44-15.77-7.32-20.74c-4.87-4.98-11.86-7.47-20.99-7.47h-12.88v56H450.72z"/>
			</g>
		</g>
	</g>
	<g>
		<g transform="translate(585.571795, 719.963534)">
			<g>
				<path class="st1" d="M299.15-388.26v141h-34v-58h-53v58h-34v-141h34v55h53v-55H299.15z"/>
			</g>
		</g>
	</g>
	<g>
		<g transform="translate(686.221806, 719.963534)">
			<g>
				<path class="st1" d="M316.51-305.45c0,3.21-0.2,6.54-0.6,10.19h-77.4c0.53,6.74,2.76,12.04,6.69,15.71
					c3.94,3.67,8.78,5.5,14.5,5.5c8.54,0,14.48-3.59,17.81-10.21h36.4c-1.86,6.75-5.23,13.35-10.1,19.23
					c-4.86,5.86-10.96,10.46-18.29,13.79c-7.33,3.33-15.54,5-24.6,5c-10.93,0-20.67-2.33-29.21-7c-8.53-4.67-15.2-11.33-20-20
					c-4.79-8.67-7.19-18.8-7.19-30.4c0-11.61,2.36-21.75,7.08-30.42c4.73-8.67,11.36-15.33,19.9-20c8.54-4.67,18.34-7,29.42-7
					c10.8,0,20.4,2.27,28.79,6.81c8.4,4.53,14.97,10.99,19.71,19.4C314.14-326.44,316.51-316.64,316.51-305.45z M281.51-314.26
					c0-5.86-2-10.52-6-13.98c-4-3.47-9-5.21-15-5.21c-5.74,0-10.57,1.67-14.5,5c-3.93,3.33-6.37,8.06-7.31,14.19H281.51z"/>
			</g>
		</g>
	</g>
	<g>
		<g transform="translate(769.62182, 719.963534)">
			<g>
				<path class="st1" d="M232.95-303.46c0-11.51,2.15-21.62,6.46-30.32c4.31-8.7,10.17-15.39,17.59-20.07
					c7.43-4.68,15.72-7.02,24.86-7.02c7.83,0,14.7,1.61,20.59,4.83c5.89,3.21,10.44,7.42,13.63,12.65v-15.87h34v112h-34v-15.85
					c-3.32,5.22-7.93,9.43-13.84,12.65c-5.9,3.2-12.76,4.81-20.57,4.81c-9.02,0-17.25-2.37-24.68-7.13
					c-7.42-4.75-13.28-11.5-17.59-20.26C235.11-281.81,232.95-291.95,232.95-303.46z M315.91-303.64c0-8.54-2.37-15.28-7.1-20.21
					c-4.74-4.93-10.51-7.4-17.31-7.4c-6.79,0-12.56,2.44-17.29,7.31c-4.74,4.86-7.1,11.56-7.1,20.08c0,8.53,2.36,15.29,7.1,20.29
					c4.73,5,10.5,7.5,17.29,7.5c6.8,0,12.57-2.46,17.31-7.4C313.54-288.38,315.91-295.11,315.91-303.64z"/>
			</g>
		</g>
	</g>
	<g>
		<g transform="translate(862.471825, 719.963534)">
			<g>
				<path class="st1" d="M304.25-396.26v148h-34v-148H304.25z"/>
			</g>
		</g>
	</g>
	<g>
		<g transform="translate(897.721845, 719.963534)">
			<g>
				<path class="st1" d="M344-277.26v29h-17.45c-12.45,0-22.15-3.03-29.12-9.1c-6.96-6.07-10.43-15.96-10.43-29.69v-44.21h-14v-28
					h14v-27h35v27h22v28h-23v44.64c0,3.32,0.81,5.72,2.44,7.18c1.62,1.45,4.34,2.18,8.14,2.18H344z"/>
			</g>
		</g>
	</g>
	<g>
		<g transform="translate(949.62185, 719.963534)">
			<g>
				<path class="st1" d="M367.59-361.05c12.84,0,23.13,4.24,30.88,12.71c7.76,8.46,11.64,20.08,11.64,34.88v65.21h-34v-60.6
					c0-7.46-1.95-13.26-5.84-17.4c-3.88-4.14-9.1-6.21-15.66-6.21c-6.56,0-11.79,2.07-15.68,6.21c-3.88,4.14-5.82,9.94-5.82,17.4
					v60.6h-34v-148h34v51.4c3.47-4.93,8.21-8.86,14.23-11.79C353.34-359.58,360.09-361.05,367.59-361.05z"/>
			</g>
		</g>
	</g>
	<g>
		<g transform="translate(1064.528789, 719.963534)">
			<g>
				<path class="st2" d="M388.2-247.16c-10.21,0-19.36-1.66-27.44-4.97c-8.07-3.31-14.53-8.2-19.37-14.69
					c-4.83-6.5-7.38-14.31-7.64-23.44h36.15c0.54,5.16,2.32,9.1,5.36,11.82c3.05,2.72,7.02,4.08,11.94,4.08
					c5.02,0,8.99-1.16,11.9-3.48c2.92-2.32,4.39-5.53,4.39-9.64c0-3.43-1.16-6.27-3.48-8.53c-2.32-2.26-5.17-4.12-8.55-5.57
					c-3.38-1.46-8.18-3.11-14.4-4.97c-9.01-2.78-16.36-5.57-22.06-8.34c-5.69-2.78-10.58-6.89-14.69-12.31
					c-4.11-5.43-6.17-12.52-6.17-21.27c0-12.98,4.7-23.14,14.11-30.48c9.4-7.35,21.65-11.03,36.75-11.03
					c15.36,0,27.75,3.68,37.14,11.03c9.4,7.34,14.44,17.57,15.11,30.69h-36.75c-0.26-4.51-1.92-8.05-4.97-10.64
					c-3.05-2.58-6.96-3.87-11.73-3.87c-4.1,0-7.41,1.1-9.93,3.29c-2.51,2.18-3.77,5.32-3.77,9.41c0,4.51,2.12,8.03,6.35,10.55
					c4.23,2.51,10.85,5.22,19.86,8.13c9.01,3.05,16.33,5.97,21.95,8.75c5.63,2.77,10.49,6.81,14.59,12.1
					c4.11,5.3,6.17,12.12,6.17,20.46c0,7.95-2.02,15.16-6.06,21.64c-4.03,6.49-9.89,11.65-17.57,15.5
					C407.73-249.07,398.66-247.16,388.2-247.16z"/>
			</g>
		</g>
	</g>
	<g>
		<g transform="translate(1147.778805, 719.963534)">
			<g>
				<path class="st2" d="M479.31-359.26l-70.17,165h-36.88l25.67-56.93L352.4-359.26h38.3l25.85,69.98l25.67-69.98H479.31z"/>
			</g>
		</g>
	</g>
	<g>
		<g transform="translate(1233.578815, 719.963534)">
			<g>
				<path class="st2" d="M462.03-360.45c13.1,0,23.56,4.25,31.38,12.75c7.82,8.49,11.74,20.15,11.74,35v65.44h-34v-60.6
					c0-7.46-1.95-13.26-5.84-17.4c-3.88-4.14-9.1-6.21-15.66-6.21c-6.56,0-11.79,2.07-15.68,6.21c-3.88,4.14-5.82,9.94-5.82,17.4
					v60.6h-34v-112h34v14.87c3.47-4.96,8.14-8.88,14.02-11.75C448.05-359.02,454.67-360.45,462.03-360.45z"/>
			</g>
		</g>
	</g>
	<g>
		<g transform="translate(1325.678821, 719.963534)">
			<g>
				<path class="st2" d="M417.33-303.75c0-11.68,2.37-21.88,7.13-30.6c4.76-8.72,11.41-15.43,19.93-20.12
					c8.52-4.7,18.28-7.04,29.28-7.04c14.09,0,25.85,3.69,35.3,11.07c9.46,7.38,15.67,17.77,18.63,31.19h-36.64
					c-3.08-8.58-9.04-12.87-17.9-12.87c-6.3,0-11.33,2.45-15.09,7.36c-3.76,4.89-5.64,11.9-5.64,21.02c0,9.11,1.88,16.12,5.64,21.02
					c3.76,4.89,8.79,7.34,15.09,7.34c8.86,0,14.82-4.29,17.9-12.87h36.64c-2.97,13.15-9.21,23.49-18.74,31
					c-9.52,7.5-21.25,11.26-35.19,11.26c-11,0-20.76-2.35-29.28-7.04c-8.53-4.7-15.17-11.4-19.93-20.12
					C419.7-281.89,417.33-292.08,417.33-303.75z"/>
			</g>
		</g>
	</g>
	<g>
		<defs>
			<rect id="SVGID_1_" x="146.72" y="332.7" width="193" height="165"/>
		</defs>
		<clipPath id="SVGID_00000085235897016002751530000007725730363719604616_">
			<use xlink:href="#SVGID_1_"  style="overflow:visible;"/>
		</clipPath>
		<g style="clip-path:url(#SVGID_00000085235897016002751530000007725730363719604616_);">
			<path class="st4" d="M215.65,332.92c-39.17,6.68-68.93,40.97-68.93,81.65v83.14h192.19c-4.25-33.99-17.31-66.46-39.47-92.86
				c-5.77-6.98-12.45-13.36-19.43-19.42L215.65,332.92z"/>
		</g>
	</g>
	<g>
		<defs>
			<rect id="SVGID_00000048498291522731972460000009348670202688462500_" x="344.72" y="132.7" width="168" height="168"/>
		</defs>
		<clipPath id="SVGID_00000052809130159662155100000011921004837195522192_">
			<use xlink:href="#SVGID_00000048498291522731972460000009348670202688462500_"  style="overflow:visible;"/>
		</clipPath>
		<g style="clip-path:url(#SVGID_00000052809130159662155100000011921004837195522192_);">
			<path class="st4" d="M511.72,256.52v-40.66c0-45.52-37.33-83.16-83.16-83.16h-82.84v98.93c9.4-3.94,20.03-6.37,30.95-6.37
				c42.19,0,76.78,32.78,79.22,74.36C473.78,284.14,492.3,269.88,511.72,256.52z"/>
		</g>
	</g>
	<path class="st6" d="M429.32,695.7h82.4v-198h115.93c45.63,0,83.07-37.24,83.07-82.95V331.7H548.49
		c-20.63,26.67-36.08,57.28-46.7,94.25c-17.28,60-18.8,123.95-41.85,182.15c-13.64,34.25-33.04,61.53-56.7,83.35
		C411.43,694.19,420.22,695.7,429.32,695.7z"/>
	<g>
		<defs>
			<rect id="SVGID_00000000942450020940889240000006806458631440475318_" x="223.72" y="233.7" width="391" height="509"/>
		</defs>
		<clipPath id="SVGID_00000034795637670327587860000002523905177497754303_">
			<use xlink:href="#SVGID_00000000942450020940889240000006806458631440475318_"  style="overflow:visible;"/>
		</clipPath>
		<g style="clip-path:url(#SVGID_00000034795637670327587860000002523905177497754303_);">
			<path class="st4" d="M612.91,233.83C337.22,412.89,586.5,658.11,223.96,742.47c175.19-82.24,183.09-291.64,74.69-380.26
				l105.97,33.07C404.62,395.28,480.53,290.89,612.91,233.83z"/>
		</g>
	</g>
	<path class="st6" d="M376.39,254.47c27.64,0,50.09,22.46,50.09,50.07c0,27.6-22.47,49.78-50.09,49.78
		c-27.62,0-49.8-22.16-49.8-49.78C326.59,276.92,348.75,254.47,376.39,254.47z"/>
</g>
</svg>
